<svg id="Capa_1" data-name="Capa 1" xmlns="http://www.w3.org/2000/svg" viewBox="0 0 181 181"><defs><style>.cls-1{fill:#fff;}.cls-2{fill:none;stroke:#fff;stroke-miterlimit:10;stroke-width:0.25px;}</style></defs><title>Mesa de trabajo 37</title><path class="cls-1" d="M123.81,21.87V96.81l-13.92,13.92-52.7.49V74.93l17.65-17.4,10,.13-.26-18.27,18.4-17.65Zm-18.39,3.47.12,53.82-12.8.12v-18H78.07v32l42.26.14.13-68Z"/><path class="cls-1" d="M40.3,124.73h8.4L55,131.07v16.8l-5,5H35.24q-.12,0-.24-.24V130Zm.85,22.1,12.79,0V132l-5.71-6.16H41.07Zm4.67-16.39,3.57,3.24-.12,8.71H45.82Z"/><path class="cls-1" d="M91.68,124.79v6.55l-2.59,2.52,2.59,0v14.25l-4.48,4.71-15.3,0v-4.44l2-2.28V146l-2,0v-9.22l11.93-12.09ZM78.49,139.51h7.34v3.3l-7.14.15v4.32l11.81.08V135l-7.38,0v-1.14l3.54-3.54H90.5l0-4.47H84.38l-5.89,5.81Z"/><path class="cls-1" d="M59.32,129.42H72l0,5.38-2.11,2V142l-1.37,1.5,3.48,0v5.34l-4,4H54.92a.12.12,0,0,1-.13-.14V134Zm1,.91-.07,18,10.83,0v-3.91l-6.89,0v-3.17l4.8-.05,0-3.67-4.83,0,.07-3.45,6.82,0,0-3.65Z"/><path class="cls-1" d="M105.31,129.34V149l-4.06,3.86-6.22,0V133.92l4.72-4.58Zm-1,1-3.7.06-.06,17.86,3.89-.06Z"/><path class="cls-1" d="M119.91,129.47l7.2,0v5.34l-2.91,3.07,2.94-.06,0,11.18-3.73,3.86-13.41,0V139.54Zm-4.45,18.87h10.73l0-9.58h-5v3.43l1.73,0,0,2.36h-3.47l-.1-7.46,2.88-3h4.15v-3.73h-6l-4.84,4.78Z"/><path class="cls-1" d="M132.58,129.37h5.11l1,1.5,1.77-1.5h5.43l.07,19.69-4.32,3.8h-5l-1-1.44L134,152.86l-6.09,0V134.28Zm.79,1v18l4,0,0-8.05h.13l4.38,8.05,3.27,0,0-17.89H141l0,7.65-4.06-7.71Z"/><circle class="cls-2" cx="90.5" cy="90" r="90" transform="translate(-27.55 41.48) rotate(-22.5)"/></svg>